PathFileType	4	(X/Y/Z)	E:/New_biomech_experiments/MICROGRAVITY MOCAP/Session 2024-06-22/Neeraj_FullAction_pp_22_06_24_t02 (1).trc	
DataRate	CameraRate	NumFrames	NumMarkers	Units	OrigDataRate	OrigDataStartFrame	OrigNumFrames	
120.00	120.00	18	19	m	120.00	5685	7579	
Frame#	Time	RSHO			MarkerSet_RBAK			MarkerSet_LBHD			MarkerSet_RUPA			MarkerSet_PRSHO			MarkerSet_RELB			MarkerSet_CLAV			MarkerSet_RFHD			MarkerSet_LFHD			MarkerSet_C7			MarkerSet_RWRB			MarkerSet_RFRM			MarkerSet_RWRA			MarkerSet_MRELB			MarkerSet_DIA			MarkerSet_STRN			MarkerSet_ARSHO			MarkerSet_RBHD			MarkerSet_T10			
		X1	Y1	Z1	X2	Y2	Z2	X3	Y3	Z3	X4	Y4	Z4	X5	Y5	Z5	X6	Y6	Z6	X7	Y7	Z7	X8	Y8	Z8	X9	Y9	Z9	X10	Y10	Z10	X11	Y11	Z11	X12	Y12	Z12	X13	Y13	Z13	X14	Y14	Z14	X15	Y15	Z15	X16	Y16	Z16	X17	Y17	Z17	X18	Y18	Z18	X19	Y19	Z19	

5685	47.367	-0.06476	1.59023	0.07306	-0.11119	1.38040	0.04309	-0.03835	1.71692	-0.10856	-0.03344	1.65856	0.21830	-0.10900	1.49320	0.09737	-0.03457	1.74255	0.32599	0.09955	1.49664	-0.05444	0.05811	1.81151	0.03926	0.07735	1.82550	-0.06195	-0.10306	1.52760	-0.05888	-0.03387	1.90850	0.57369	-0.01687	1.83527	0.42652	0.06363	1.91213	0.55416	0.05215	1.68019	0.37829	0.08300	1.19339	0.13897	0.13959	1.33593	-0.02523	0.05551	1.54738	0.07576	-0.06519	1.71561	-0.00692	-0.10731	1.33517	-0.02628 
5686	47.375	-0.06463	1.59029	0.07297	-0.10679	1.37572	0.04320	-0.03832	1.71697	-0.10867	-0.03307	1.65839	0.21821	-0.10896	1.49259	0.09687	-0.03464	1.74247	0.32593	0.09961	1.49666	-0.05455	0.05817	1.81152	0.03916	0.07767	1.82570	-0.06182	-0.10299	1.52763	-0.05897	-0.03414	1.90834	0.57370	-0.01743	1.83578	0.42751	0.06343	1.91198	0.55423	0.05211	1.68011	0.37828	0.08299	1.19336	0.13887	0.13963	1.33593	-0.02535	0.05558	1.54738	0.07568	-0.06510	1.71561	-0.00704	-0.10725	1.33521	-0.02637 
5687	47.383	-0.06458	1.59030	0.07285	-0.10515	1.37482	0.04379	-0.03826	1.71695	-0.10876	-0.03340	1.65852	0.21815	-0.10888	1.49258	0.09673	-0.03472	1.74238	0.32590	0.09968	1.49666	-0.05464	0.05820	1.81153	0.03907	0.07772	1.82573	-0.06191	-0.10295	1.52762	-0.05908	-0.03434	1.90820	0.57377	-0.01761	1.83567	0.42753	0.06324	1.91187	0.55428	0.05202	1.68003	0.37830	0.08305	1.19339	0.13875	0.13966	1.33593	-0.02543	0.05568	1.54743	0.07556	-0.06570	1.71672	-0.00757	-0.10722	1.33525	-0.02644 
5688	47.392	-0.06449	1.59031	0.07277	-0.10669	1.37580	0.04292	-0.03821	1.71692	-0.10886	-0.03295	1.65872	0.21802	-0.10884	1.49261	0.09659	-0.03488	1.74229	0.32589	0.09973	1.49666	-0.05476	0.05824	1.81153	0.03898	0.07776	1.82576	-0.06201	-0.10290	1.52764	-0.05917	-0.03459	1.90803	0.57381	-0.01777	1.83555	0.42753	0.06285	1.91150	0.55415	0.05197	1.67995	0.37827	0.08308	1.19340	0.13862	0.13970	1.33594	-0.02557	0.05578	1.54747	0.07549	-0.06552	1.71666	-0.00765	-0.10730	1.33532	-0.02662 
5689	47.400	-0.06457	1.59019	0.07265	-0.10660	1.37579	0.04283	-0.03817	1.71696	-0.10894	-0.03344	1.65841	0.21801	-0.10881	1.49256	0.09645	-0.03499	1.74216	0.32587	0.09980	1.49668	-0.05485	0.05827	1.81153	0.03889	0.07776	1.82576	-0.06212	-0.10285	1.52766	-0.05930	-0.03485	1.90779	0.57381	-0.01794	1.83540	0.42758	0.06267	1.91141	0.55421	0.05239	1.67928	0.37839	0.08312	1.19342	0.13851	0.13974	1.33593	-0.02566	0.05574	1.54746	0.07538	-0.06547	1.71664	-0.00775	-0.10748	1.33542	-0.02692 
5690	47.408	-0.06446	1.59026	0.07252	-0.10654	1.37581	0.04267	-0.03813	1.71693	-0.10906	-0.03342	1.65835	0.21795	-0.10876	1.49256	0.09628	-0.03509	1.74207	0.32584	0.09986	1.49669	-0.05495	0.05830	1.81152	0.03877	0.07783	1.82580	-0.06219	-0.10276	1.52768	-0.05939	-0.03509	1.90754	0.57381	-0.01811	1.83529	0.42756	0.06242	1.91129	0.55427	0.05237	1.67920	0.37834	0.08317	1.19343	0.13841	0.13981	1.33593	-0.02576	0.05583	1.54749	0.07532	-0.06538	1.71662	-0.00786	-0.10727	1.33535	-0.02687 
5691	47.417	-0.06444	1.59022	0.07243	-0.10638	1.37578	0.04255	-0.03810	1.71694	-0.10915	-0.03353	1.65828	0.21788	-0.10877	1.49251	0.09614	-0.03522	1.74198	0.32579	0.09989	1.49669	-0.05504	0.05837	1.81157	0.03868	0.07791	1.82580	-0.06229	-0.10268	1.52764	-0.05948	-0.03528	1.90733	0.57386	-0.01828	1.83516	0.42757	0.06221	1.91119	0.55437	0.05230	1.67914	0.37830	0.08323	1.19343	0.13829	0.13988	1.33593	-0.02588	0.05583	1.54747	0.07522	-0.06529	1.71662	-0.00795	-0.10651	1.33508	-0.02628 
5692	47.425	-0.06445	1.59019	0.07230	-0.10640	1.37578	0.04244	-0.03804	1.71691	-0.10923	-0.03350	1.65823	0.21774	-0.10875	1.49250	0.09605	-0.03525	1.74193	0.32576	0.09993	1.49670	-0.05513	0.05841	1.81156	0.03857	0.07813	1.82582	-0.06220	-0.10263	1.52760	-0.05958	-0.03549	1.90711	0.57391	-0.01843	1.83507	0.42755	0.06195	1.91104	0.55442	0.05224	1.67910	0.37824	0.08325	1.19342	0.13817	0.13985	1.33569	-0.02617	0.05582	1.54748	0.07516	-0.06525	1.71662	-0.00807	-0.10724	1.33537	-0.02711 
5693	47.433	-0.06441	1.59021	0.07218	-0.11064	1.38029	0.04209	-0.03800	1.71693	-0.10934	-0.03361	1.65821	0.21766	-0.10875	1.49247	0.09585	-0.03536	1.74189	0.32563	0.09996	1.49670	-0.05523	0.05846	1.81156	0.03845	0.07801	1.82578	-0.06254	-0.10260	1.52758	-0.05970	-0.03574	1.90693	0.57388	-0.01856	1.83497	0.42752	0.06174	1.91089	0.55452	0.05211	1.67901	0.37818	0.08331	1.19346	0.13804	0.13988	1.33574	-0.02626	0.05584	1.54747	0.07506	-0.06520	1.71662	-0.00818	-0.11020	1.33648	-0.03007 
5694	47.442	-0.06443	1.59018	0.07207	-0.11062	1.38026	0.04192	-0.03790	1.71690	-0.10943	-0.03356	1.65821	0.21759	-0.10878	1.49311	0.09615	-0.03542	1.74180	0.32559	0.10000	1.49671	-0.05526	0.05854	1.81161	0.03834	0.07807	1.82578	-0.06264	-0.10259	1.52759	-0.05983	-0.03596	1.90673	0.57389	-0.01866	1.83489	0.42752	0.06148	1.91073	0.55460	0.05157	1.67958	0.37807	0.08332	1.19347	0.13796	0.13996	1.33575	-0.02637	0.05584	1.54747	0.07498	-0.06525	1.71666	-0.00831	-0.11230	1.33726	-0.03223 
5695	47.450	-0.06441	1.59021	0.07197	-0.10644	1.37578	0.04196	-0.03796	1.71722	-0.10950	-0.03358	1.65814	0.21750	-0.10877	1.49246	0.09560	-0.03550	1.74178	0.32551	0.10001	1.49672	-0.05535	0.05862	1.81158	0.03824	0.07834	1.82578	-0.06253	-0.10257	1.52761	-0.05994	-0.03622	1.90651	0.57393	-0.01885	1.83476	0.42751	0.06123	1.91058	0.55469	0.05187	1.67884	0.37806	0.08336	1.19347	0.13787	0.13998	1.33577	-0.02646	0.05584	1.54746	0.07486	-0.06524	1.71671	-0.00840	-0.11056	1.33663	-0.03074 
5696	47.458	-0.06444	1.59020	0.07183	-0.10487	1.37480	0.04253	-0.03776	1.71694	-0.10969	-0.03356	1.65812	0.21741	-0.10878	1.49246	0.09542	-0.03560	1.74168	0.32547	0.10004	1.49673	-0.05545	0.05881	1.81168	0.03825	0.07819	1.82576	-0.06285	-0.10256	1.52760	-0.06008	-0.03647	1.90636	0.57394	-0.01900	1.83465	0.42750	0.06101	1.91042	0.55473	0.05173	1.67876	0.37800	0.08335	1.19347	0.13776	0.14002	1.33577	-0.02657	0.05582	1.54744	0.07478	-0.06516	1.71671	-0.00848	-0.10724	1.33539	-0.02774 
5697	47.467	-0.06448	1.59017	0.07170	-0.11055	1.38026	0.04153	-0.03780	1.71724	-0.10974	-0.03366	1.65809	0.21732	-0.10879	1.49244	0.09523	-0.03570	1.74163	0.32543	0.10005	1.49672	-0.05557	0.05876	1.81156	0.03803	0.07827	1.82573	-0.06297	-0.10254	1.52760	-0.06020	-0.03672	1.90615	0.57394	-0.01917	1.83454	0.42750	0.06079	1.91022	0.55479	0.05124	1.67937	0.37793	0.08339	1.19348	0.13766	0.14004	1.33576	-0.02665	0.05585	1.54748	0.07471	-0.06508	1.71673	-0.00857	-0.10659	1.33515	-0.02732 
5698	47.475	-0.06446	1.59018	0.07158	-0.11051	1.38022	0.04139	-0.03792	1.71712	-0.11023	-0.03368	1.65801	0.21725	-0.10881	1.49244	0.09506	-0.03581	1.74151	0.32542	0.10005	1.49676	-0.05563	0.05880	1.81153	0.03794	0.07836	1.82572	-0.06302	-0.10250	1.52761	-0.06038	-0.03692	1.90593	0.57403	-0.01930	1.83438	0.42754	0.06061	1.91002	0.55490	0.05066	1.67893	0.37768	0.08338	1.19349	0.13755	0.14005	1.33579	-0.02674	0.05582	1.54748	0.07461	-0.06512	1.71675	-0.00871	-0.10718	1.33536	-0.02811 
5699	47.483	-0.06449	1.59014	0.07146	-0.11054	1.38021	0.04122	-0.03792	1.71740	-0.11034	-0.03392	1.65795	0.21719	-0.10885	1.49242	0.09494	-0.03600	1.74136	0.32540	0.10007	1.49677	-0.05575	0.05889	1.81151	0.03788	0.07843	1.82574	-0.06311	-0.10250	1.52761	-0.06057	-0.03713	1.90569	0.57407	-0.01953	1.83422	0.42759	0.06045	1.90979	0.55498	0.05056	1.67882	0.37761	0.08321	1.19312	0.13716	0.14007	1.33580	-0.02686	0.05585	1.54752	0.07454	-0.06512	1.71678	-0.00884	-0.10716	1.33533	-0.02829 
5700	47.492	-0.06452	1.59015	0.07136	-0.11051	1.38021	0.04113	-0.03755	1.71730	-0.11016	-0.03383	1.65794	0.21714	-0.10887	1.49240	0.09475	-0.03611	1.74127	0.32536	0.10007	1.49677	-0.05580	0.05889	1.81151	0.03778	0.07849	1.82571	-0.06321	-0.10246	1.52761	-0.06078	-0.03733	1.90543	0.57420	-0.01944	1.83373	0.42732	0.06029	1.90957	0.55507	0.05052	1.67875	0.37757	0.08341	1.19354	0.13734	0.14009	1.33581	-0.02696	0.05581	1.54752	0.07440	-0.06506	1.71679	-0.00894	-0.10713	1.33528	-0.02848 
5701	47.500	-0.06458	1.59011	0.07124	-0.10652	1.37567	0.04104	-0.03750	1.71731	-0.11030	-0.03329	1.65723	0.21638	-0.10890	1.49235	0.09458	-0.03618	1.74115	0.32533	0.10006	1.49676	-0.05592	0.05898	1.81149	0.03769	0.07872	1.82568	-0.06315	-0.10248	1.52764	-0.06094	-0.03755	1.90509	0.57429	-0.01984	1.83388	0.42771	0.06010	1.90930	0.55517	0.05041	1.67861	0.37751	0.08327	1.19315	0.13695	0.14009	1.33583	-0.02708	0.05574	1.54750	0.07433	-0.06500	1.71675	-0.00905	-0.10712	1.33524	-0.02865 
5702	47.508	-0.06464	1.59010	0.07112	-0.11045	1.38011	0.04082	-0.03742	1.71730	-0.11041	-0.03397	1.65782	0.21697	-0.10899	1.49233	0.09441	-0.03629	1.74103	0.32530	0.10002	1.49675	-0.05607	0.05899	1.81145	0.03759	0.07860	1.82568	-0.06341	-0.10247	1.52765	-0.06114	-0.03775	1.90474	0.57436	-0.01996	1.83371	0.42773	0.05990	1.90904	0.55528	0.05032	1.67850	0.37747	0.08323	1.19315	0.13684	0.14009	1.33583	-0.02719	0.05579	1.54754	0.07424	-0.06499	1.71676	-0.00920	-0.10708	1.33520	-0.02883 
